# xmcd
#
# Track frame offsets:
#	150
#	26919
#	47123
#	65187
#	93331
#	118584
#	147485
#	166147
#	185030
#	211548
#	237164
#	264865
#	285451
#
# Disc length: 4114 seconds
#
# Revision: 0
# Processed by: cddbd v1.5.2PL0 Copyright (c) Steve Scherf et al.
# Submitted via: audiograbber 1.83.01
#
DISCID=bb10100d
DTITLE=Walter Trout - The Outsider
DYEAR=2008
DGENRE=Blues
TTITLE0=Welcome To The Human Race
TTITLE1=The Next Big Thing
TTITLE2=All My Life
TTITLE3=The Love Song Of J. Alfred Bluesrock
TTITLE4=Don't Wanna Fall
TTITLE5=Child Of Another Day
TTITLE6=Turn Your Eyes To Heaven
TTITLE7=The Restless Age
TTITLE8=Gone Too Long
TTITLE9=A Matter Of The Heart
TTITLE10=Can't Have It All
TTITLE11=Sanjay
TTITLE12=The Outsider
EXTD=
EXTT0=
EXTT1=
EXTT2=
EXTT3=
EXTT4=
EXTT5=
EXTT6=
EXTT7=
EXTT8=
EXTT9=
EXTT10=
EXTT11=
EXTT12=
PLAYORDER=
